<svg width="512" height="512" viewBox="0 0 512 512" fill="none" xmlns="http://www.w3.org/2000/svg">
<circle cx="256" cy="256" r="226" stroke="white" stroke-width="14"/>
<circle cx="312.691" cy="301.225" r="18.5" stroke="white" stroke-width="13"/>
<rect x="183" y="132.979" width="15.9586" height="294.289" transform="rotate(-30 183 132.979)" fill="white"/>
<path d="M196.704 127.299C197.422 125.805 196.792 124.013 195.299 123.296C193.805 122.578 192.013 123.208 191.296 124.701L196.704 127.299ZM186.139 132.057L188.09 134.336L186.139 132.057ZM176.274 141.744L178.507 143.747L176.274 141.744ZM169.376 162.944L172.359 163.262L169.376 162.944ZM186.91 251.754L183.92 252.002L186.91 251.754ZM183.595 285.309L180.748 284.363L183.595 285.309ZM174.925 306.027L172.039 305.209L174.925 306.027ZM171.11 327.648L168.111 327.568L171.11 327.648ZM156.497 339C156.497 347.837 163.661 355 172.497 355C181.334 355 188.497 347.837 188.497 339C188.497 330.163 181.334 323 172.497 323C163.661 323 156.497 330.163 156.497 339ZM191.296 124.701C191.31 124.672 191.203 124.876 190.7 125.302C190.235 125.697 189.618 126.13 188.865 126.617C187.547 127.472 185.474 128.677 184.187 129.779L188.09 134.336C188.972 133.581 190.315 132.828 192.128 131.653C192.941 131.126 193.818 130.526 194.585 129.875C195.314 129.255 196.176 128.399 196.704 127.299L191.296 124.701ZM184.187 129.779C180.411 133.013 177.091 136.339 174.04 139.742L178.507 143.747C181.408 140.512 184.542 137.375 188.09 134.336L184.187 129.779ZM174.04 139.742C167.312 147.245 167.124 155.778 166.393 162.626L172.359 163.262C173.155 155.804 173.334 149.516 178.507 143.747L174.04 139.742ZM166.393 162.626C164.72 178.299 168.665 193.558 173.145 208.292C177.681 223.212 182.719 237.492 183.92 252.002L189.899 251.507C188.631 236.178 183.3 221.067 178.885 206.547C174.414 191.842 170.827 177.616 172.359 163.262L166.393 162.626ZM183.92 252.002C184.828 262.98 184.265 273.772 180.748 284.363L186.443 286.254C190.292 274.662 190.851 263.004 189.899 251.507L183.92 252.002ZM180.748 284.363C179.662 287.634 178.086 290.874 176.427 294.369C174.805 297.785 173.109 301.434 172.039 305.209L177.811 306.845C178.726 303.618 180.208 300.393 181.847 296.943C183.447 293.571 185.214 289.954 186.443 286.254L180.748 284.363ZM172.039 305.209C170.017 312.342 168.311 320.077 168.111 327.568L174.109 327.728C174.289 320.971 175.842 313.793 177.811 306.845L172.039 305.209ZM168.111 327.568C168.05 329.854 168.466 332.05 168.818 333.901C169.192 335.858 169.497 337.444 169.497 339H175.497C175.497 336.767 175.058 334.591 174.712 332.777C174.346 330.857 174.068 329.272 174.109 327.728L168.111 327.568Z" fill="white"/>
</svg>
